<?xml version="1.0" encoding="UTF-8" standalone="no"?>
<!-- Created with Inkscape (http://www.inkscape.org/) -->

<svg
   xmlns:dc="http://purl.org/dc/elements/1.1/"
   xmlns:cc="http://creativecommons.org/ns#"
   xmlns:rdf="http://www.w3.org/1999/02/22-rdf-syntax-ns#"
   xmlns:svg="http://www.w3.org/2000/svg"
   xmlns="http://www.w3.org/2000/svg"
   xmlns:sodipodi="http://sodipodi.sourceforge.net/DTD/sodipodi-0.dtd"
   xmlns:inkscape="http://www.inkscape.org/namespaces/inkscape"
   width="210mm"
   height="297mm"
   viewBox="0 0 210 297"
   version="1.1"
   id="svg8"
   inkscape:version="0.92.3 (2405546, 2018-03-11)"
   sodipodi:docname="logo.svg">
  <defs
     id="defs2" />
  <sodipodi:namedview
     id="base"
     pagecolor="#ffffff"
     bordercolor="#666666"
     borderopacity="1.0"
     inkscape:pageopacity="0.0"
     inkscape:pageshadow="2"
     inkscape:zoom="0.98994949"
     inkscape:cx="855.97104"
     inkscape:cy="510.88388"
     inkscape:document-units="mm"
     inkscape:current-layer="layer1"
     showgrid="false"
     inkscape:window-width="3200"
     inkscape:window-height="1664"
     inkscape:window-x="3840"
     inkscape:window-y="64"
     inkscape:window-maximized="1" />
  <metadata
     id="metadata5">
    <rdf:RDF>
      <cc:Work
         rdf:about="">
        <dc:format>image/svg+xml</dc:format>
        <dc:type
           rdf:resource="http://purl.org/dc/dcmitype/StillImage" />
        <dc:title></dc:title>
      </cc:Work>
    </rdf:RDF>
  </metadata>
  <g
     inkscape:label="Layer 1"
     inkscape:groupmode="layer"
     id="layer1">
    <path
       style="fill:#917c6f;stroke:#000000;stroke-width:0.99999994px;stroke-linecap:butt;stroke-linejoin:miter;stroke-opacity:1"
       d="m 230.55859,440.94141 c -22.69953,-0.059 -48.90457,11.70416 -70.44921,43.66601 -26.76905,47.98228 29.29502,98.99536 48.97683,107.57962 19.6818,8.58425 45.64302,16.20211 35.42551,34.27976 -14.91406,26.38717 -44.15881,58.78326 -48.54297,14.21093 -20.20305,42.42645 5.80853,90.91318 40.40625,62.62891 122.6225,-88.1788 -19.67576,-133.00148 -40.40625,-158.08984 -13.83407,-16.7422 2.52593,-68.18442 39.39648,-78.79102 36.87058,-10.6066 31.31446,49.49735 31.31446,64.14453 0,14.64722 24.74957,-21.71928 15.6582,-56.06445 -4.8298,-18.24589 -26.05316,-33.49763 -51.7793,-33.56445 z"
       transform="scale(0.26458333)"
       id="path847"
       inkscape:connector-curvature="0"
       sodipodi:nodetypes="ccssccssssc"
       inkscape:export-xdpi="96"
       inkscape:export-ydpi="96" />
    <path
       style="fill:#917c6f;stroke:#000000;stroke-width:0.26458332px;stroke-linecap:butt;stroke-linejoin:miter;stroke-opacity:1"
       d="m 90.020674,135.61601 c -2.759043,0.0106 -6.91248,1.73639 -10.641726,6.1004 3.741774,2.6727 3.073733,2.40564 7.082771,0.13384 4.009043,-2.27179 2.405539,5.34502 2.405539,9.08679 0,0.97372 -0.157539,3.14111 -0.392224,5.85856 -3.023751,-0.073 -6.025867,-0.44026 -8.695076,-1.31465 0,0 0.133641,2.93967 2.004528,4.14238 1.317623,0.43921 3.297685,0.47134 6.354133,0.90175 -0.701577,7.49377 -1.692002,16.87097 -1.944066,19.81171 -0.400904,4.67722 2.538868,6.01359 4.543391,6.01359 1.054999,0 1.663115,-12.58304 2.005047,-24.97419 2.848477,0.65 6.308545,1.66125 10.556459,3.32538 -1.06908,-3.0736 -0.26696,-4.40976 0.53485,-9.22062 -2.80577,0.3915 -6.760504,1.00319 -10.973488,1.23403 0.21385,-9.38411 0.282671,-17.70242 0.282671,-19.00762 0,-1.30294 -1.235041,-2.09861 -3.122809,-2.09135 z"
       id="path817"
       inkscape:connector-curvature="0"
       inkscape:export-xdpi="96"
       inkscape:export-ydpi="96" />
    <path
       style="fill:#917c6f;stroke:#000000;stroke-width:0.26458332px;stroke-linecap:butt;stroke-linejoin:miter;stroke-opacity:1"
       d="m 108.51143,182.87591 c -5.47903,0.66817 -2.80633,6.1472 1.06907,5.07812 3.87541,-1.06908 2.6727,-5.07812 -1.06907,-5.07812 z"
       id="path821"
       inkscape:connector-curvature="0"
       inkscape:export-xdpi="96"
       inkscape:export-ydpi="96" />
    <path
       style="fill:#917c6f;stroke:#000000;stroke-width:0.26458332px;stroke-linecap:butt;stroke-linejoin:miter;stroke-opacity:1"
       d="m 124.81487,129.68927 c 27.26149,-2.00452 32.87415,1.87089 35.41321,2.53906 2.53906,0.66818 1.06908,7.88445 1.06908,8.68626 0,0.80181 -16.43708,-4.14268 -21.24793,-4.27631 -1.46998,8.01809 -2.53906,13.09621 -1.06908,14.03165 7.48355,0.66817 13.76439,3.4745 13.76439,3.4745 0,0 -2.2718,3.60814 -3.0736,6.28084 -12.96258,-3.74178 -14.83346,-2.00452 -14.83346,-2.00452 l -1.06908,16.43707 c 0,0 8.41899,2.00452 14.56619,2.13816 -0.66818,5.07812 -0.93544,7.48355 -4.81085,7.48355 -19.77795,-2.13816 -16.57071,-2.80633 -16.57071,-2.80633 0,0 2.00452,-42.09496 2.27179,-44.90129 0.26727,-2.80633 -4.94449,-0.53453 -4.94449,-0.53453 1.33635,-1.73726 0.53454,-6.54811 0.53454,-6.54811 z"
       id="path823"
       inkscape:connector-curvature="0"
       sodipodi:nodetypes="ccscccc"
       inkscape:export-xdpi="96"
       inkscape:export-ydpi="96" />
    <path
       style="fill:#917c6f;stroke:#000000;stroke-width:0.26458332px;stroke-linecap:butt;stroke-linejoin:miter;stroke-opacity:1"
       d="m 155.95177,154.0108 c 24.1879,-0.13363 25.92515,1.06908 25.92515,1.06908 0,0 -13.22984,11.49259 -16.57071,16.70435 6.5481,2.80633 20.71339,8.01808 23.92062,7.88445 -4.00904,5.07812 -1.73725,5.21176 -1.73725,5.21176 -8.15172,-0.13364 -29.93419,-4.54359 -34.07687,-4.67722 3.47451,-9.75534 18.84251,-21.78247 18.84251,-21.78247 0,0 -10.69079,0.26727 -12.69531,0.40091 z"
       id="path825"
       inkscape:connector-curvature="0"
       inkscape:export-xdpi="96"
       inkscape:export-ydpi="96" />
    <path
       style="fill:#917c6f;stroke:#000000;stroke-width:0.26458332px;stroke-linecap:butt;stroke-linejoin:miter;stroke-opacity:1"
       d="m 195.50766,158.55438 c -0.13364,16.57072 -2.53906,27.12786 -4.00904,29.26602 2.13815,0.93544 4.27631,0.93544 4.27631,0.93544 0,0 1.20271,-10.28987 4.40995,-13.63074 3.20723,-3.34087 12.82894,-8.95353 14.43255,-5.34539 l 5.07812,-1.87089 c 0,0 -6.68173,-6.5481 -12.6953,-3.20723 -6.01356,3.34087 -6.1472,5.34539 -6.1472,5.34539 l -2.13815,-11.09169 z"
       id="path827"
       inkscape:connector-curvature="0"
       inkscape:export-xdpi="96"
       inkscape:export-ydpi="96" />
    <path
       style="fill:#917c6f;stroke:#000000;stroke-width:0.26458332px;stroke-linecap:butt;stroke-linejoin:miter;stroke-opacity:1"
       d="m 233.27205,162.28363 c -9.51135,0.002 -16.10307,16.41615 -15.31379,22.7304 0.80181,6.41447 16.03645,9.48819 19.51095,6.41459 3.47451,-3.0736 5.21158,-9.0873 5.21158,-9.0873 h -3.7419 c 0,0 1.87098,6.28096 -5.61257,6.4146 -7.48355,0.13363 -13.23008,-1.3364 -4.81108,-12.02718 6.68174,-0.13363 16.70441,-3.20703 16.70441,-3.20703 0,0 -1.73699,-10.69114 -11.49233,-11.22568 -0.15242,-0.008 -0.30429,-0.0124 -0.45527,-0.0124 z m 2.31769,6.91224 c 1.29418,0.0366 2.29291,0.99738 3.21583,1.9203 l -7.48378,0.8015 c 1.75396,-2.06716 3.12603,-2.7541 4.26795,-2.7218 z"
       id="path829"
       inkscape:connector-curvature="0"
       inkscape:export-xdpi="96"
       inkscape:export-ydpi="96" />
    <path
       style="fill:#917c6f;stroke:#000000;stroke-width:0.26458332px;stroke-linecap:butt;stroke-linejoin:miter;stroke-opacity:1"
       d="m 256.38777,164.34334 c -4.42521,0.009 -8.87124,3.79111 -9.02993,12.51914 -0.26726,14.69982 12.96254,18.44145 17.63974,16.57056 4.67725,-1.87089 4.67725,-6.41459 4.67725,-6.41459 l 4.81108,5.07824 0.53432,-3.34088 -10.95798,-19.51044 c -1.62867,-3.14877 -4.64669,-4.90849 -7.67448,-4.90203 z m 1.64952,5.68596 c 0.78174,0.0191 1.55258,0.48112 2.14974,1.35392 4.40997,7.88446 7.75041,18.1744 3.07319,17.37259 -4.67722,-0.80181 -9.35392,-8.55278 -8.68577,-13.76454 0.4385,-3.42021 1.97043,-4.99845 3.46284,-4.96197 z"
       id="path833"
       inkscape:connector-curvature="0"
       inkscape:export-xdpi="96"
       inkscape:export-ydpi="96" />
    <path
       style="fill:#917c6f;stroke:#000000;stroke-width:0.26458332px;stroke-linecap:butt;stroke-linejoin:miter;stroke-opacity:1"
       d="m 274.35216,141.58277 c 2.93997,-3.60814 12.16078,-9.08717 12.29442,2.00452 0.13362,11.09168 2.00451,32.47325 2.13815,37.95227 0.13364,5.47903 7.34991,8.41899 8.41899,3.87541 0,0 5.21176,0.26727 3.87541,2.27179 -1.33635,2.00452 -8.28536,16.43708 -18.0407,-2.93996 -3.20723,-3.87541 -1.87088,-36.74956 -1.46998,-40.09043 0.40091,-3.34087 -4.67721,-1.46998 -6.41447,-0.13364 z"
       id="path837"
       inkscape:connector-curvature="0"
       inkscape:export-xdpi="96"
       inkscape:export-ydpi="96" />
    <path
       style="fill:#917c6f;stroke:#000000;stroke-width:0.26458332px;stroke-linecap:butt;stroke-linejoin:miter;stroke-opacity:1"
       d="m 298.80734,153.60989 c -4.54358,3.20724 1.46998,8.15172 4.40995,5.7463 1.87088,2.27179 1.46998,5.61266 1.46998,5.61266 0,0 2.67269,-4.40995 1.87088,-10.02261 -0.80181,-5.61266 -7.75081,-1.33635 -7.75081,-1.33635 z"
       id="path839"
       inkscape:connector-curvature="0"
       inkscape:export-xdpi="96"
       inkscape:export-ydpi="96" />
    <path
       style="fill:#917c6f;stroke:#000000;stroke-width:0.26458332px;stroke-linecap:butt;stroke-linejoin:miter;stroke-opacity:1"
       d="m 331.14694,167.37427 c -5.34538,-8.01808 -18.84249,-6.5481 -17.77341,4.00905 1.06907,10.55714 8.95352,7.88445 11.22531,10.69078 2.2718,2.80633 -1.33635,15.10073 -6.14719,9.75533 l -2.27179,3.07361 c 0,0 8.81989,4.27631 13.49711,-2.00452 4.67722,-6.28084 2.80633,-11.8935 -4.54358,-15.90254 -7.34991,-4.00904 -8.41899,-13.89802 2.27179,-8.68626 z"
       id="path841"
       inkscape:connector-curvature="0"
       inkscape:export-xdpi="96"
       inkscape:export-ydpi="96" />
  </g>
</svg>
